<svg width="46" height="37" viewBox="0 0 46 37" fill="none" xmlns="http://www.w3.org/2000/svg">
<g clip-path="url(#clip0_14_2870)">
<path d="M46 32.7647L35.1954 37V25.7059L46 21.2535V32.7647Z" fill="#8280FF"/>
<path d="M22.4651 21.0363V32.6018L11.7675 37V25.7602L22.4651 21.0363Z" fill="#8280FF"/>
<path d="M34.2326 3.76939V15.0092L23.5349 19.4073V8.16756L34.2326 3.76939Z" fill="#8280FF"/>
<path d="M5.88372 23.7512L10.8047 25.7602V37L0 32.7647V21.2535L4.81716 23.2593C5.10707 23.5449 4.77972 25.6104 4.94233 26.1729C5.08674 26.6725 5.88372 26.4846 5.88372 26.086V23.7512Z" fill="#8280FF"/>
<path d="M23.5349 21.0363L28.3317 23.117C28.6013 24.0249 27.6664 27.0135 29.3117 26.3575V23.8055C29.3117 23.5373 29.7663 23.7403 29.8744 23.7773C31.3025 24.2692 32.8579 25.125 34.2326 25.7602V37L23.5349 32.6018V21.0363Z" fill="#8280FF"/>
<path d="M17.3302 6.04993L22.4651 8.16756V19.5159L11.7675 15.1178V3.76939L16.3675 5.66984V8.60195C16.3675 8.9462 17.3302 8.9462 17.3302 8.60195V6.04993Z" fill="#8280FF"/>
<path d="M45.1442 20.6008L34.7321 24.8122C33.4056 24.1367 31.8363 23.685 30.5333 23.0008C30.4231 22.9432 30.3311 23.0583 30.3814 22.7749L34.9803 20.8723C35.5024 20.4564 35.0787 19.7244 34.4465 20.0024L29.026 22.3123C27.6706 21.652 26.1077 21.1644 24.779 20.4792C24.6988 20.4379 24.3254 20.2566 24.3918 20.1686L34.715 15.98C37.8505 17.3418 41.0384 18.6167 44.1482 20.0394C44.4627 20.1838 44.9142 20.3499 45.1453 20.6008H45.1442Z" fill="#8280FF"/>
<path d="M21.6093 20.1697C21.5472 20.3662 21.3108 20.4325 21.1472 20.5139C17.9913 22.0973 14.4525 23.2451 11.2678 24.8133L6.74059 22.8846L11.5845 20.8256C12.022 20.2783 11.5385 19.7353 10.9084 20.0024L5.40125 22.3481L0.856873 20.6008L1.10292 20.363L11.2892 16.0517L21.6104 20.1686L21.6093 20.1697Z" fill="#8280FF"/>
<path d="M33.1617 3.01139L23.0364 7.21408L18.614 5.45373L23.1872 4.34061C23.6536 4.07021 23.5884 3.59129 23.1123 3.3817L16.8628 4.71201L12.8362 3.06351L22.9636 0L33.1617 3.01139Z" fill="#8280FF"/>
</g>
<defs>
<clipPath id="clip0_14_2870">
<rect width="46" height="37" fill="white"/>
</clipPath>
</defs>
</svg>
